<svg xmlns="http://www.w3.org/2000/svg" width="1600" height="420" viewBox="0 0 1600 420" fill="none" role="img" aria-labelledby="ebLogoTitle ebLogoDesc">
  <title id="ebLogoTitle">ErrandBridge logo</title>
  <desc id="ebLogoDesc">Stylized EB bridge mark with a location pin and the ErrandBridge wordmark.</desc>
  <defs>
    <linearGradient id="ebBrandGradient" x1="0" y1="0" x2="1" y2="1">
      <stop offset="0%" stop-color="#07245C" />
      <stop offset="55%" stop-color="#0A5C85" />
      <stop offset="100%" stop-color="#15C59D" />
    </linearGradient>
    <linearGradient id="ebBridgeGradient" x1="0" y1="0" x2="1" y2="0">
      <stop offset="0%" stop-color="#0C3A73" />
      <stop offset="100%" stop-color="#12BB96" />
    </linearGradient>
    <filter id="ebSoftShadow" x="-15%" y="-20%" width="130%" height="150%">
      <feDropShadow dx="0" dy="14" stdDeviation="14" flood-color="#0b1f4d" flood-opacity="0.12" />
    </filter>
  </defs>

  <g transform="translate(18 18)" filter="url(#ebSoftShadow)">
    <g transform="translate(0 0)">
      <path
        d="M132 304C92 274 68 227 68 172V146C68 73 125 18 200 18H353"
        stroke="#07245C"
        stroke-width="72"
        stroke-linecap="round"
        stroke-linejoin="round"
      />
      <path
        d="M203 175H398"
        stroke="#07245C"
        stroke-width="72"
        stroke-linecap="round"
      />
      <path
        d="M351 18H540C612 18 664 67 664 136C664 176 645 211 608 234C648 258 664 290 664 336C664 408 611 458 536 458H282"
        transform="translate(-10 -18) scale(0.78)"
        stroke="url(#ebBrandGradient)"
        stroke-width="92"
        stroke-linecap="round"
        stroke-linejoin="round"
      />
      <path
        d="M150 286C228 212 296 170 362 145C422 122 480 111 540 116"
        stroke="#ffffff"
        stroke-width="50"
        stroke-linecap="round"
      />
      <path
        d="M175 294C247 225 311 182 375 156C431 133 486 123 537 126"
        stroke="url(#ebBridgeGradient)"
        stroke-width="14"
        stroke-linecap="round"
      />
      <g stroke="url(#ebBridgeGradient)" stroke-width="10" stroke-linecap="round">
        <path d="M350 170V219" />
        <path d="M385 160V215" />
        <path d="M421 151V211" />
        <path d="M457 145V208" />
        <path d="M493 141V205" />
      </g>
      <path
        d="M382 94C382 59 410 31 445 31C480 31 508 59 508 94C508 147 445 208 445 208C445 208 382 147 382 94Z"
        fill="url(#ebBrandGradient)"
      />
      <circle cx="445" cy="94" r="24" fill="#ffffff" />
    </g>

    <g transform="translate(600 40)">
      <text
        x="0"
        y="220"
        fill="#07245C"
        font-family="Inter, Segoe UI, Arial, sans-serif"
        font-size="150"
        font-weight="700"
        letter-spacing="-5"
      >Errand</text>
      <text
        x="546"
        y="220"
        fill="url(#ebBrandGradient)"
        font-family="Inter, Segoe UI, Arial, sans-serif"
        font-size="150"
        font-weight="700"
        letter-spacing="-5"
      >Bridge</text>
    </g>
  </g>
</svg>
